<?xml version="1.0" encoding="UTF-8" standalone="no"?>
<svg height="32" width="32" viewBox="0 0 384 384">
    <path
       style="fill:#ff0000"
       d="m 108,384 48,0 228,-228 0,-48 -276,276"
    />
    <path
       style="fill:#ffc800"
       d="m 156,384 48,0 180,-180 0,-48 -228,228"
    />
    <path
       style="fill:#259e00"
       d="m 204,384 48,0 132,-132 0,-48 -180,180"
    />
    <path
       style="fill:#0030d2"
       d="m 252,384 48,0 84,-84 0,-48 -132,132"
    />
    <path
       style="fill:#000000;fill-opacity:0.5"
       d="m 48,144 0,24 96,0 0,24 -24,0 0,24 -24,0 0,24 -24,0 0,24 -24,0 0,24 204,0 0,-24 24,0 0,-24 24,0 0,24 24,0 0,24 48,0 0,-24 -24,0 0,-24.2 -24,0.2 0,-48 24,0 0,-24 24,0 0,-24 -48,0 0,24 -24,0 0,24 -24,0 0,-24 -24,0 0,-24 z m 144,24 36,0 0,24 24,0 0,48 -24,0 0,24 -108,0 0,-24 24,0 0,-24 24,0 0,-24 24,0 z"
    />
    <path
       style="fill:#ffffff"
       d="m 24,120 0,24 96,0 0,24 -24,0 0,24 -24,0 0,24 -24,0 0,24 -24,0 0,24 204,0 0,-24 24,0 0,-24 24,0 0,24 24,0 0,24 48,0 0,-24 -24,0 0,-24.2 -24,0.2 0,-48 24,0 0,-24 24,0 0,-24 -48,0 0,24 -24,0 0,24 -24,0 0,-24 -24,0 0,-24 z m 144,24 36,0 0,24 24,0 0,48 -24,0 0,24 -108,0 0,-24 24,0 0,-24 24,0 0,-24 24,0 z"
    />
</svg>
