<?xml version="1.0" encoding="UTF-8" standalone="no"?>
<svg
   xmlns:dc="http://purl.org/dc/elements/1.1/"
   xmlns:cc="http://creativecommons.org/ns#"
   xmlns:rdf="http://www.w3.org/1999/02/22-rdf-syntax-ns#"
   xmlns:svg="http://www.w3.org/2000/svg"
   xmlns="http://www.w3.org/2000/svg"
   xmlns:sodipodi="http://sodipodi.sourceforge.net/DTD/sodipodi-0.dtd"
   xmlns:inkscape="http://www.inkscape.org/namespaces/inkscape"
   height="32"
   width="32"
   viewBox="0 0 384 384"
   version="1.1"
   id="svg3796"
   sodipodi:docname="ic_browser_vfs_network.svg"
   inkscape:version="0.92.4 (5da689c313, 2019-01-14)">
  <metadata
     id="metadata3802">
    <rdf:RDF>
      <cc:Work
         rdf:about="">
        <dc:format>image/svg+xml</dc:format>
        <dc:type
           rdf:resource="http://purl.org/dc/dcmitype/StillImage" />
        <dc:title />
      </cc:Work>
    </rdf:RDF>
  </metadata>
  <defs
     id="defs3800">
    <marker
       inkscape:stockid="DotL"
       orient="auto"
       refY="0.0"
       refX="0.0"
       id="DotL"
       style="overflow:visible"
       inkscape:isstock="true">
      <path
         id="path885"
         d="M -2.5,-1.0 C -2.5,1.7600000 -4.7400000,4.0 -7.5,4.0 C -10.260000,4.0 -12.5,1.7600000 -12.5,-1.0 C -12.5,-3.7600000 -10.260000,-6.0 -7.5,-6.0 C -4.7400000,-6.0 -2.5,-3.7600000 -2.5,-1.0 z "
         style="fill-rule:evenodd;stroke:#00ff00;stroke-width:1pt;stroke-opacity:1;fill:#00ff00;fill-opacity:1"
         transform="scale(0.8) translate(7.4, 1)" />
    </marker>
  </defs>
  <sodipodi:namedview
     pagecolor="#ffffff"
     bordercolor="#666666"
     borderopacity="1"
     objecttolerance="10"
     gridtolerance="10"
     guidetolerance="10"
     inkscape:pageopacity="0"
     inkscape:pageshadow="2"
     inkscape:window-width="1850"
     inkscape:window-height="1016"
     id="namedview3798"
     showgrid="true"
     inkscape:zoom="45.254834"
     inkscape:cx="21.267239"
     inkscape:cy="10.79814"
     inkscape:window-x="70"
     inkscape:window-y="27"
     inkscape:window-maximized="1"
     inkscape:current-layer="svg3796"
     showguides="false">
    <inkscape:grid
       type="xygrid"
       id="grid3823" />
  </sodipodi:namedview>
  <path
     style="fill:#455a64;fill-opacity:1;stroke:none;stroke-width:0;stroke-linecap:butt;stroke-linejoin:round;stroke-miterlimit:0;stroke-dasharray:none;stroke-opacity:1"
     d="M 84,288 H 295 C 408,288 408,96 264,96 264,0 96,12 96,103 -24,102 -19,288 84,288 Z"
     id="path3839"
     inkscape:connector-curvature="0"
     sodipodi:nodetypes="ccccc" />
  <path
     style="fill:#cfd8dc;fill-opacity:1;stroke-linecap:butt;stroke-linejoin:miter;stroke-miterlimit:4;stroke-dasharray:none;stroke-opacity:1"
     d="m 145,172 c -9,3 -8,11 -8,19 v 84 c -17,-5 -39,0 -48,16 -11,16 -1,40 16,48 20,11 49,6 60,-15 6,-13 3,-28 3,-42 v -74 c 0,-7 13,-9 18,-10 l 59,-14 c 4,0 12,0 12,15 v 59 c -19,-4 -45.52055,6 -51,22 -5.47945,16 -2,31 11,39 19,12 45,8 61,-7 9,-9 10,-26 10,-36 V 149 c 0,-5 -5,-10 -11,-9 z"
     id="path1123"
     inkscape:connector-curvature="0"
     sodipodi:nodetypes="cccccccccccczcccccc" />
</svg>
