<svg height="32" width="32" viewBox="0 0 400 400" xmlns="http://www.w3.org/2000/svg">
    <path
        fill="#4093cc"
        d="m0,0h400v400h-400z"
        />
    <path
        fill="#ffffff"
        d="m125,300 l0,-10 c5,0 10,0 10,-5 l0,-65 c0,-10 -5,-10 -25,-10 l0,-10 c0,-10 10,-15 25,-15 40,0 55,30 55,55 0,25 -15,60 -55,60z m5,-205 l0,15 c15,0 15,0 15,15 -5,0 -15,5 -15,15 0,10 5,25 25,25 20,0 30,-10 30,-30 0,-20 -10,-40 -40,-40z m-30,30 l0,155 c 0,5 10,10 20,10 l0,10 -15,0 c-20,0 -60,-30 -60,-100 0,-70 40,-105 65,-105 l15,0 0,15 c-15,0 -25,5 -25,15z m180,125 l-65,0 0,-25 60,-70 0,25 -45,55 50,0z m80,50 l0,-15 -20,-5 0,-30 25,0 0,-15 -25,0 0,-140 -25,0 -30,30 0,155 -20,5 0,15z"
        />
</svg>
