<?xml version="1.0" encoding="UTF-8" standalone="no"?>
<svg
   xmlns:dc="http://purl.org/dc/elements/1.1/"
   xmlns:cc="http://creativecommons.org/ns#"
   xmlns:rdf="http://www.w3.org/1999/02/22-rdf-syntax-ns#"
   xmlns:svg="http://www.w3.org/2000/svg"
   xmlns="http://www.w3.org/2000/svg"
   xmlns:sodipodi="http://sodipodi.sourceforge.net/DTD/sodipodi-0.dtd"
   xmlns:inkscape="http://www.inkscape.org/namespaces/inkscape"
   height="32"
   width="32"
   viewBox="0 0 384 384"
   version="1.1"
   id="svg3796"
   sodipodi:docname="ic_browser_vfs_radio.svg"
   inkscape:version="0.92.4 (5da689c313, 2019-01-14)">
  <metadata
     id="metadata3802">
    <rdf:RDF>
      <cc:Work
         rdf:about="">
        <dc:format>image/svg+xml</dc:format>
        <dc:type
           rdf:resource="http://purl.org/dc/dcmitype/StillImage" />
        <dc:title></dc:title>
      </cc:Work>
    </rdf:RDF>
  </metadata>
  <defs
     id="defs3800">
    <marker
       inkscape:stockid="DotL"
       orient="auto"
       refY="0.0"
       refX="0.0"
       id="DotL"
       style="overflow:visible"
       inkscape:isstock="true">
      <path
         id="path885"
         d="M -2.5,-1.0 C -2.5,1.7600000 -4.7400000,4.0 -7.5,4.0 C -10.260000,4.0 -12.5,1.7600000 -12.5,-1.0 C -12.5,-3.7600000 -10.260000,-6.0 -7.5,-6.0 C -4.7400000,-6.0 -2.5,-3.7600000 -2.5,-1.0 z "
         style="fill-rule:evenodd;stroke:#00ff00;stroke-width:1pt;stroke-opacity:1;fill:#00ff00;fill-opacity:1"
         transform="scale(0.8) translate(7.4, 1)" />
    </marker>
  </defs>
  <sodipodi:namedview
     pagecolor="#ffffff"
     bordercolor="#666666"
     borderopacity="1"
     objecttolerance="10"
     gridtolerance="10"
     guidetolerance="10"
     inkscape:pageopacity="0"
     inkscape:pageshadow="2"
     inkscape:window-width="1850"
     inkscape:window-height="1016"
     id="namedview3798"
     showgrid="true"
     inkscape:zoom="16"
     inkscape:cx="-1.24"
     inkscape:cy="19.9"
     inkscape:window-x="70"
     inkscape:window-y="27"
     inkscape:window-maximized="1"
     inkscape:current-layer="svg3796"
     showguides="false">
    <inkscape:grid
       type="xygrid"
       id="grid3823" />
  </sodipodi:namedview>
  <path
     style="fill:#cfd8dc;fill-opacity:1;stroke-width:0.48532778;stroke-linecap:butt;stroke-linejoin:miter;stroke-miterlimit:4;stroke-dasharray:none;stroke-opacity:1"
     d="m 41,285 c -5,1 -5,5 -5,9 v 42 c -8,-3 -17,0 -22,8 -5,8 0,20 8,24 9,6 18,5 23,-6 3,-6 3,-15 3,-22 v -37 c 0,-3 10,-5 12,-6 l 28,-7 c 2,1 8,1 8,8 v 30 c -9,-2 -24,3 -27,11 -2,8 -1,16 5,20 9,6 21,4 29,-4 4,-5 5,-13 5,-18 v -64 c 0,-3 -2,-5 -5,-5 z"
     id="path1123"
     inkscape:connector-curvature="0"
     sodipodi:nodetypes="cccccccccccczcccccc" />
  <path
     style="fill:none;stroke:#455a64;stroke-width:48;stroke-linecap:round;stroke-linejoin:round;stroke-miterlimit:4;stroke-dasharray:none;stroke-opacity:1"
     d="m 36,204 c 96,0 144,48 144,144"
     id="path4681"
     inkscape:connector-curvature="0"
     sodipodi:nodetypes="cc" />
  <path
     style="fill:none;stroke:#455a64;stroke-width:48;stroke-linecap:round;stroke-linejoin:round;stroke-miterlimit:4;stroke-dasharray:none;stroke-opacity:1"
     d="m 36,120 c 144,0 228,84 228,228"
     id="path4681-6"
     inkscape:connector-curvature="0"
     sodipodi:nodetypes="cc" />
  <path
     style="fill:none;stroke:#455a64;stroke-width:48;stroke-linecap:round;stroke-linejoin:round;stroke-miterlimit:4;stroke-dasharray:none;stroke-opacity:1"
     d="m 36,36 c 204,0 312,108 312,312"
     id="path4681-6-7"
     inkscape:connector-curvature="0"
     sodipodi:nodetypes="cc" />
</svg>
