<?xml version="1.0" encoding="UTF-8" standalone="no"?>
<svg height="32" width="32" viewBox="0 0 384 384">
  <path
     style="fill:#c6c6c6;fill-opacity:1;stroke:none"
     d="m 0,126 h 384 v 114 H 0 Z" />
  <path
     style="fill:none;stroke:#294a8c;stroke-width:18;stroke-linecap:round;stroke-linejoin:round;stroke-miterlimit:4;stroke-opacity:1"
     d="m 307,210 h 33 m -46,30 31,-87 31,88 m -176,-1 19,-88 29,89 24,-88 18,87 M 160,162 c -9,-13 -44,-15 -44,12 0,24 44,12 44,40 0,29 -31,27 -48,14 M 37,208 h 33 m -46,30 31,-87 31,88" />
  <path
     style="fill:#294a8c;fill-opacity:1;stroke:none"
     d="m 0,240 h 384 v 33 H 0 v -33"
     id="path12" />
  <path
     id="path42"
     style="fill:none;stroke:#c6c6c6;stroke-width:5;stroke-linecap:round;stroke-linejoin:round;stroke-miterlimit:4;stroke-dasharray:none;stroke-opacity:1"
     d="m 370,246 h -5 c -4,0 -7,2 -7,10 0,8 3,10 7,10 h 5 m -21,-20 v 0 m 0,19 v -10 m -8,-9 c -8,-2 -16,-1 -16,4 0,5 5,5 8,5 3,0 8,0 8,5 0,5 -8,6 -16,4 m -25,-18 v 15 c 0,7 15,7 15,0 v -15 m -45,20 v -20 l 10,15 10,-15 v 20 m -53,-10 h 8 m 8,-10 h -16 v 20 h 16 m -45,-20 20,20 m -20,0 20,-20 m -42,20 15,-20 m -36,0 v 20 h 15 m -45,-20 20,20 m -20,0 20,-20 m -38,20 v -20 m -24,20 v -20 h 7 c 7,0 7,10.1195 0,10 h -7 l 12,10 m -39,-8 h 12 m -16,8 10,-20 10,20 M 40,246 h 20 m -10,20 v -20 m -31,12 h 12 m -16,8 10,-20 10,20" />
</svg>
