<?xml version="1.0" encoding="UTF-8" standalone="no"?>
<svg width="32" height="32" viewBox="0 0 500 500" >
  <path
     fill="#505050"
     d="M 22,55 C 12,55 7,60 6,71 v 318 c 0,10 6,16 16,16 h 154 c 5,0 9,-13 16,-16 15,-7 32,-5 42,0 5,5 0,11 5,16 h 37 c 21,-8 35,-36 53,-37 h 138 c 21,0 26,-26 26,-42 V 93 C 493,72 477,56 456,56 Z"
  />
  <path
     fill="#ffffff"
     d="M 70,160 V 290 H 95 V 170 c 0,-10 5,-15 15,-15 10,0 15,5 15,15 v 120 h 25 V 170 c 0,-10 5,-15 15,-15 10,0 15,5 15,15 v 120 h 25 V 165 c 0,-30 -18,-35 -40,-35 -15,0 -15,0 -25,10 -10,-10 -15,-10 -30,-10 -25,0 -40,5 -40,30 z m 163,0 c 18,0 18,-25 0,-25 -18,0 -18,25 0,25 z m 47,-15 c -15,0 -25,5 -25,38 0,33 10,38 25,38 h 20 c 10,0 15,-5 15,-13 0,-8 -5,-12 -10,-13 h -20 c -5,0 -6,-6 -6,-13 0,-4 1,-12 6,-13 h 20 c 5,0 10,0 10,-13 C 315,145 310,145 300,145 Z m 45,20 v 55 h 20 v -45 c 0,-15 5,-15 10,-15 5,0 10,0 10,15 0,5 15,5 15,0 v -15 c 0,-15 -15,-15 -25,-15 -16,1 -30,0 -30,20 z m 70,17 c 0,28 10,38 40,38 30,0 40,-10 40,-38 0,-28 -10,-37 -40,-37 -30,0 -40,10 -40,37 z M 232,168 c -12,2 -12,2 -12,8 v 44 h 25 v -45 c 0,-5 0,-5 -13,-7 z m 203,-3 c 15,0 20,5 20,17 0,13 -5,18 -20,18 -15,0 -20,-5 -20,-18 0,-12 5,-17 20,-17 z m -160,76 c -15,0 -45,10 -45,25 0,10 20,20 40,25 15,5 10,10 0,10 -15,0 -35,0 -55,-5 l -10,25 c 30,5 50,5 90,0 25,-5 25,-15 25,-25 0,-15 -20,-20 -45,-25 -25,-5 -15,-15 -5,-15 h 65 l 5,-15 z m 80,0 -5,15 h 20 c 3,0 6,0 8,1 l 22,-15 c -5,-2 -30,-1 -45,-1 z m 62,4 -32,16 3,3 42,-15 c -4,-2 -9,-3 -13,-4 z m 24,9 -51,16 c 0,10 -15,20 -25,20 h -25 l -10,30 c 37,1 128,-5 130,-45 0,-10 -8,-17 -19,-22 z"
  />
</svg>
