<?xml version="1.0" encoding="UTF-8" standalone="no"?>
<svg 
   height="32"
   width="32"
   viewBox="0 0 384 384">
  <path
     style="fill:#385a7f;"
     d="M 120,60 C 108,60 96,72 96,84 v 216 c 0,12 12,24 24,24 h 144 c 12,0 24,-12 24,-24 V 84 C 288,72 276,60 264,60 Z m 36,24 c 12,0 24,12 24,24 0,12 -12,24 -24,24 -12,0 -24,-12 -24,-24 0,-12 12,-24 24,-24 z m -72,0 -48,24 48,24 z m 216,0 v 48 l 48,-24 z m -216,84 -48,23 48,25 z m 216,0 v 48 l 48,-24 z m -216,84 -48,24 48,24 z m 216,0 v 48 l 48,-24 z"/>
</svg>
