<?xml version="1.0" encoding="UTF-8" standalone="no"?>
<svg
   xmlns="http://www.w3.org/2000/svg"
   height="32"
   viewBox="0 0 48 48"
   width="32"
   fill="#cfd8dc"
   >
  <path
     style="fill:none;stroke:#607d8b;stroke-width:4;stroke-linecap:round;"
     d="m 18,17 c 0,-5 3,-6 6,-6 3,0 6,1 6,5 0,3 -3,5.5 -4,6 -2,1 -2,2 -2,7"
     />
  <path
     style="fill:#607d8b"
     d="m 27,36 a 3,3 0 0 1 -3,3 3,3 0 0 1 -3,-3 3,3 0 0 1 3,-3 3,3 0 0 1 3,3 z"
     />
  <path
     style="fill:none;stroke:#607d8b;stroke-width:1;"
     d="M 12,44 H 36 V 6 H 18 l -6,6 z"
     />
</svg>
