<?xml version="1.0" encoding="UTF-8" standalone="no"?>
<svg height="32" width="32" viewBox="0 0 384 384">
  <path
     style="fill:#ffac00"
     d="m 12,300 c 0,15 21,36 36,36 h 288 c 15,0 36,-21 36,-36 V 84 C 372,69 351,48 336,48 H 48 C 33,48 12,69 12,84 Z"
  />
  <path
     style="fill:#ffffff"
     d="m 48,84 h 120 v 36 L 96,264 h 72 v 36 H 48 V 264 L 120,120 H 48 Z"
  />
  <path
     style="fill:#ffffff"
     d="m 192,84 48,108 -48,108 h 48 l 24,-60 24,60 h 48 L 288,192 336,84 h -48 l -24,60 -24,-60 z"
  />
</svg>
