<?xml version="1.0" encoding="UTF-8" standalone="no"?>
<svg height="32" width="32" viewBox="0 0 256 256">
  <path
     style="fill:#ffffff;stroke:#000000;stroke-width:8"
     d="M 176,120 V 88 l 16,-24 h 24 V 16 h 24 v 80 l -16,24 z m -64,0 V 88 l 16,-24 h 48 v 32 l -16,24 z m -96,0 V 40 l 8,-24 h 32 l 8,24 16,-24 h 24 l 8,24 V 96 L 96,120 H 80 v -16 l -16,16 h -8 v -16 l -16,16 z"
  />
  <path
     style="fill:#ffffff;stroke:#000000;stroke-width:8"
     d="m 176,240 v -32 l 16,-24 h 24 v -48 h 24 v 80 l -16,24 z m -72,0 v -56 h 56 l 16,24 v 32 h -24 v -16 l -16,16 z m -64,0 v -32 l 16,-24 h 48 v 56 H 88 v -16 l -16,16 z m -24,0 V 136 h 24 v 104 z"
  />
</svg>
