<svg fill="#cfd8dc" width="24" height="24" viewBox="0 0 120 120" xmlns="http://www.w3.org/2000/svg">
   <path d="m 60,5 v 5 C 40,10 23,21 15,38 l 9,4.5 C 31,29 44,20 60,20 v 5 L 75,15 Z m 22,10 -5,9 c 14,7 23,20 23,36 h -5 l 10,15 10,-15 h -5 C 110,40 99,23 82,15 Z M 65,30 v 45 c 0,0 -4,-4 -12,-4 -8,0 -16,5 -16,11 0,5 8,11 16,11 8,0 19,-5 19,-11 V 45 c 0,0 2,-1 4,4 3,5 0,13 0,13 0,0 6,-5 6,-11 0,-5 0,-8 -8,-13 -7,-5 -9,-8 -9,-8 z M 15,45 5,60 h 5 c 0,20 11,37 28,45 l 5,-9 C 29,89 20,76 20,60 h 5 z m 81,33 c -7,13 -20,22 -36,22 v -5 l -15,10 15,10 v -5 c 20,0 37,-11 45,-28 z"/>
</svg>