<?xml version="1.0" encoding="UTF-8" standalone="no"?>
<!-- Created with Inkscape (http://www.inkscape.org/) -->

<svg
   xmlns:dc="http://purl.org/dc/elements/1.1/"
   xmlns:cc="http://creativecommons.org/ns#"
   xmlns:rdf="http://www.w3.org/1999/02/22-rdf-syntax-ns#"
   xmlns:svg="http://www.w3.org/2000/svg"
   xmlns="http://www.w3.org/2000/svg"
   xmlns:sodipodi="http://sodipodi.sourceforge.net/DTD/sodipodi-0.dtd"
   xmlns:inkscape="http://www.inkscape.org/namespaces/inkscape"
   width="384"
   height="384"
   id="svg2"
   version="1.1"
   inkscape:version="0.48.5 r10040"
   sodipodi:docname="ic_menu_rate.svg">
  <defs
     id="defs4">
    <inkscape:path-effect
       effect="spiro"
       id="path-effect3263"
       is_visible="true" />
    <inkscape:path-effect
       effect="spiro"
       id="path-effect3263-3"
       is_visible="true" />
    <inkscape:path-effect
       effect="spiro"
       id="path-effect3263-3-8"
       is_visible="true" />
    <inkscape:path-effect
       effect="spiro"
       id="path-effect3263-3-8-9"
       is_visible="true" />
  </defs>
  <sodipodi:namedview
     id="base"
     pagecolor="#a0a0a0"
     bordercolor="#666666"
     borderopacity="1.0"
     inkscape:pageopacity="1"
     inkscape:pageshadow="2"
     inkscape:zoom="1.4"
     inkscape:cx="182.96145"
     inkscape:cy="202.44739"
     inkscape:document-units="px"
     inkscape:current-layer="layer1"
     showgrid="true"
     inkscape:window-width="1280"
     inkscape:window-height="720"
     inkscape:window-x="-4"
     inkscape:window-y="-3"
     inkscape:window-maximized="1">
    <inkscape:grid
       type="xygrid"
       id="grid-mdpi"
       empspacing="1"
       visible="true"
       enabled="true"
       snapvisiblegridlinesonly="true"
       spacingx="12px"
       spacingy="12px" />
    <inkscape:grid
       type="xygrid"
       id="grid-hdpi"
       empspacing="1"
       visible="false"
       enabled="true"
       snapvisiblegridlinesonly="true"
       spacingx="8px"
       spacingy="8px" />
    <inkscape:grid
       type="xygrid"
       id="grid-xhdpi"
       empspacing="1"
       visible="false"
       enabled="true"
       snapvisiblegridlinesonly="true"
       spacingx="6px"
       spacingy="6px" />
    <inkscape:grid
       type="xygrid"
       id="grid-xxhdpi"
       empspacing="1"
       visible="false"
       enabled="true"
       snapvisiblegridlinesonly="true"
       spacingx="4px"
       spacingy="4px" />
    <inkscape:grid
       type="xygrid"
       id="grid-xxxhdpi"
       empspacing="1"
       visible="false"
       enabled="true"
       snapvisiblegridlinesonly="true"
       spacingx="3px"
       spacingy="3px" />
  </sodipodi:namedview>
  <metadata
     id="metadata7">
    <rdf:RDF>
      <cc:Work
         rdf:about="">
        <dc:format>image/svg+xml</dc:format>
        <dc:type
           rdf:resource="http://purl.org/dc/dcmitype/StillImage" />
        <dc:title></dc:title>
      </cc:Work>
    </rdf:RDF>
  </metadata>
  <g
     inkscape:groupmode="layer"
     id="layer1"
     inkscape:label="Object">
    <path
       inkscape:connector-curvature="0"
       id="path1262"
       style="fill:#ffffff;fill-opacity:1;fill-rule:nonzero;stroke:none;opacity:0.80000000000000004"
       d="m 280.06261,166.64752 c -0.19366,-1.18305 -0.9178,-2.34503 -2.00401,-3.45229 -8.75284,8.89176 -43.97049,10.3653 -86.07588,10.3653 -42.10539,0 -77.28935,-1.47354 -86.08007,-10.3653 -1.082,1.10726 -1.75562,2.26924 -2.00401,3.45229 l -0.0798,0 0.0235,0.63994 c 0,0.0759 -0.0235,0.15156 -0.0235,0.22735 0,0.17279 0.0462,0.32401 0.0717,0.48836 l 6.85406,140.42429 0.0169,0 c 0.61046,11.00947 13.21556,27.65207 81.22161,27.65207 68.01445,0 80.62798,-16.6426 81.2216,-27.65207 l 0.0505,0 6.8625,-140.42429 c 0.0135,-0.16435 0.063,-0.31557 0.063,-0.48836 0,-0.0759 -0.0505,-0.15156 -0.0505,-0.22735 l 0.0505,-0.63994 -0.11791,0 z" />
    <path
       inkscape:connector-curvature="0"
       id="path1266"
       style="fill:#ffffff;fill-opacity:1;fill-rule:nonzero;stroke:none;opacity:0.80000000000000004"
       d="m 167.41712,91.782352 -2.76605,0.172446 0,-13.733405 c 0,-6.003629 0.83783,-10.921047 1.82719,-10.921047 l 12.76509,0 21.86314,0 12.74403,0 c 1.01043,0 1.8314,4.917418 1.8314,10.921047 l 0,13.51027 c -7.60347,-0.39154 -15.51429,-0.639939 -23.69875,-0.639939 -8.48339,0 -16.7226,0.24823 -24.56605,0.690461 m 66.47356,1.372497 0,-33.154682 c 0,-5.986789 -4.90057,-10.933677 -10.92525,-10.933677 l -65.61891,0 c -5.98257,0 -10.90421,4.946888 -10.90421,10.933677 l 0,33.533594 C 113.99914,97.213237 91.790765,104.66515 91.790765,113.29589 l 0,16.39 c 0,3.36388 3.40598,6.56357 9.514865,9.4475 16.00266,7.51927 50.59301,12.7314 90.67753,12.7314 40.114,0 74.6917,-5.21213 90.71542,-12.7314 6.07099,-2.88393 9.51065,-6.08362 9.51065,-9.4475 l 0,-16.39 c 0,-8.93388 -23.9219,-16.625758 -58.31856,-20.141208" />
  </g>
</svg>
