<?xml version="1.0" encoding="UTF-8" standalone="no"?>
<!-- Created with Inkscape (http://www.inkscape.org/) -->

<svg
   xmlns:dc="http://purl.org/dc/elements/1.1/"
   xmlns:cc="http://creativecommons.org/ns#"
   xmlns:rdf="http://www.w3.org/1999/02/22-rdf-syntax-ns#"
   xmlns:svg="http://www.w3.org/2000/svg"
   xmlns="http://www.w3.org/2000/svg"
   xmlns:sodipodi="http://sodipodi.sourceforge.net/DTD/sodipodi-0.dtd"
   xmlns:inkscape="http://www.inkscape.org/namespaces/inkscape"
   width="500"
   height="500"
   id="svg2"
   version="1.1"
   inkscape:version="0.48.4 r9939"
   sodipodi:docname="vfs_local.svg">
  <defs
     id="defs4">
    <filter
       id="filter4234"
       inkscape:label="Matte bevel"
       inkscape:menu="Bevels"
       inkscape:menu-tooltip="Soft, pastel-colored, blurry bevel"
       x="-0.25"
       y="-0.25"
       width="1.5"
       height="1.5"
       color-interpolation-filters="sRGB">
      <feGaussianBlur
         id="feGaussianBlur4236"
         stdDeviation="1"
         result="result6" />
      <feComposite
         id="feComposite4238"
         in2="result6"
         operator="in"
         in="result6"
         result="result7" />
      <feGaussianBlur
         id="feGaussianBlur4240"
         stdDeviation="8"
         result="result3"
         in="result7" />
      <feComposite
         id="feComposite4242"
         in2="result7"
         operator="over"
         result="result91" />
      <feComposite
         id="feComposite4244"
         in2="result91"
         operator="in"
         in="result3"
         result="result5" />
      <feColorMatrix
         id="feColorMatrix4246"
         values="0 0 0 -1 0 0 0 0 -1 0 0 0 0 -1 0 0 0 0 1 0 "
         result="result4" />
      <feSpecularLighting
         id="feSpecularLighting4248"
         surfaceScale="3"
         specularConstant="2"
         specularExponent="45"
         in="result4"
         result="result11">
        <fePointLight
           id="fePointLight4250"
           x="-5000"
           y="-10000"
           z="20000" />
      </feSpecularLighting>
      <feComposite
         id="feComposite4252"
         in2="result4"
         operator="arithmetic"
         k1="1"
         result="result10" />
      <feComposite
         id="feComposite4254"
         in2="result10"
         operator="arithmetic"
         k2="0.5"
         k3="1"
         in="result5"
         result="result8" />
      <feComposite
         id="feComposite4256"
         in2="result8"
         result="result9" />
      <feBlend
         id="feBlend4258"
         in2="result9"
         mode="normal" />
    </filter>
    <filter
       id="filter4550"
       inkscape:label="Bloom"
       inkscape:menu="Bevels"
       inkscape:menu-tooltip="Soft, cushion-like bevel with matte highlights"
       color-interpolation-filters="sRGB">
      <feGaussianBlur
         id="feGaussianBlur4552"
         result="result1"
         in="SourceAlpha"
         stdDeviation="2.2" />
      <feSpecularLighting
         id="feSpecularLighting4554"
         result="result0"
         specularExponent="18.1"
         specularConstant="2"
         surfaceScale="5">
        <feDistantLight
           id="feDistantLight4556"
           azimuth="225"
           elevation="24" />
      </feSpecularLighting>
      <feComposite
         id="feComposite4558"
         in2="SourceAlpha"
         result="result6"
         operator="in" />
      <feMorphology
         id="feMorphology4560"
         radius="5.7"
         operator="dilate" />
      <feGaussianBlur
         id="feGaussianBlur4562"
         result="result11"
         stdDeviation="5.7" />
      <feDiffuseLighting
         id="feDiffuseLighting4564"
         surfaceScale="5"
         result="result3"
         diffuseConstant="2"
         in="result1">
        <feDistantLight
           id="feDistantLight4566"
           elevation="25"
           azimuth="225" />
      </feDiffuseLighting>
      <feBlend
         id="feBlend4568"
         in2="SourceGraphic"
         result="result7"
         mode="multiply"
         in="result3" />
      <feComposite
         id="feComposite4570"
         in2="SourceAlpha"
         in="result7"
         operator="in"
         result="result91" />
      <feBlend
         id="feBlend4572"
         in2="result91"
         result="result9"
         mode="lighten"
         in="result6" />
      <feComposite
         id="feComposite4574"
         in2="result9"
         in="result11" />
    </filter>
    <filter
       id="filter4709"
       inkscape:label="Bloom"
       inkscape:menu="Bevels"
       inkscape:menu-tooltip="Soft, cushion-like bevel with matte highlights"
       color-interpolation-filters="sRGB">
      <feGaussianBlur
         id="feGaussianBlur4711"
         result="result1"
         in="SourceAlpha"
         stdDeviation="2.2" />
      <feSpecularLighting
         id="feSpecularLighting4713"
         result="result0"
         specularExponent="18.1"
         specularConstant="2"
         surfaceScale="5">
        <feDistantLight
           id="feDistantLight4715"
           azimuth="225"
           elevation="24" />
      </feSpecularLighting>
      <feComposite
         id="feComposite4717"
         in2="SourceAlpha"
         result="result6"
         operator="in" />
      <feMorphology
         id="feMorphology4719"
         radius="5.7"
         operator="dilate" />
      <feGaussianBlur
         id="feGaussianBlur4721"
         result="result11"
         stdDeviation="5.7" />
      <feDiffuseLighting
         id="feDiffuseLighting4723"
         surfaceScale="5"
         result="result3"
         diffuseConstant="2"
         in="result1">
        <feDistantLight
           id="feDistantLight4725"
           elevation="25"
           azimuth="225" />
      </feDiffuseLighting>
      <feBlend
         id="feBlend4727"
         in2="SourceGraphic"
         result="result7"
         mode="multiply"
         in="result3" />
      <feComposite
         id="feComposite4729"
         in2="SourceAlpha"
         in="result7"
         operator="in"
         result="result91" />
      <feBlend
         id="feBlend4731"
         in2="result91"
         result="result9"
         mode="lighten"
         in="result6" />
      <feComposite
         id="feComposite4733"
         in2="result9"
         in="result11" />
    </filter>
  </defs>
  <sodipodi:namedview
     id="base"
     pagecolor="#ffffff"
     bordercolor="#666666"
     borderopacity="1.0"
     inkscape:pageopacity="0.0"
     inkscape:pageshadow="2"
     inkscape:zoom="0.7"
     inkscape:cx="-148.33333"
     inkscape:cy="256.64746"
     inkscape:document-units="px"
     inkscape:current-layer="layer4"
     showgrid="true"
     inkscape:window-width="1280"
     inkscape:window-height="726"
     inkscape:window-x="-4"
     inkscape:window-y="-3"
     inkscape:window-maximized="1">
    <inkscape:grid
       type="xygrid"
       id="grid2985"
       empspacing="1"
       visible="true"
       enabled="true"
       snapvisiblegridlinesonly="true" />
  </sodipodi:namedview>
  <metadata
     id="metadata7">
    <rdf:RDF>
      <cc:Work
         rdf:about="">
        <dc:format>image/svg+xml</dc:format>
        <dc:type
           rdf:resource="http://purl.org/dc/dcmitype/StillImage" />
        <dc:title />
      </cc:Work>
    </rdf:RDF>
  </metadata>
  <g
     inkscape:groupmode="layer"
     id="layer2"
     inkscape:label="Card"
     style="display:inline">
    <path
       style="fill:#828284;fill-opacity:1;stroke:none;filter:url(#filter4709)"
       d="m 22.139333,55.922833 c -10.58307,0 -15.8746047,5.291535 -15.8746047,15.874605 l 0,317.492082 c 0,5.29153 10.5830697,15.87461 15.8746047,15.87461 l 153.454507,0 c 5.29153,0 9.18128,-12.52795 15.87461,-15.87461 14.96672,-7.48336 31.7492,-5.29153 42.33227,0 5.29153,5.29153 0,10.58308 5.29153,15.87461 l 37.04075,0 c 5.29153,0 15.8746,-10.58308 15.8746,-10.58308 l 21.16614,-21.16613 c 0,0 5.29153,-5.29154 15.87461,-5.29154 l 137.5799,0 c 21.16614,0 26.45768,-26.45768 26.45768,-42.33227 l 0,-232.827534 c 0,-21.166138 -15.87461,-37.040743 -37.04075,-37.040743 z"
       id="path3120"
       inkscape:connector-curvature="0"
       sodipodi:nodetypes="cccccsccccccccccc" />
    <path
       style="fill:#757577;fill-opacity:1;stroke:none;filter:url(#filter4234)"
       d="m 37.857143,62.142857 c 35,50.000003 20,205.000003 0,320.000003 l -15,0 c -5,0 -10,-5 -10,-10 l 0,-300.000003 c 0,-5 5,-10 10,-10 z"
       id="path4216"
       inkscape:connector-curvature="0"
       sodipodi:nodetypes="ccccccc"
       transform="matrix(1.063666,0,0,1.063666,-1.5039381,-3.785802)" />
  </g>
  <g
     inkscape:groupmode="layer"
     id="layer4"
     inkscape:label="Logo"
     style="display:inline">
    <path
       style="fill:#ffffff;fill-opacity:1;stroke:none"
       d="m 69.950512,290 0,-130 c 0,-10 10.357143,-30.35714 30,-30 l 19.999998,0 c 15,0 15,10 20,10 5,0 5,-10 20,-10 l 15,0 c 25,0 30,25 30,35 l 0,125 -25,0 0,-120 c 0,-10 -5,-15 -15,-15 -10,0 -15,5 -15,15 l 0,120 -25,0 0,-120 c 0,-10 -5,-15 -15,-15 -9.999998,0 -14.999998,5 -14.999998,15 l 0,120 z"
       id="path4643"
       inkscape:connector-curvature="0"
       sodipodi:nodetypes="ccccccsccccccccccccc" />
    <path
       style="fill:#ffffff;fill-opacity:1;stroke:none"
       d="m 229.94511,135 c -5,0 -10,5 -10,10 l 0,5 c 0,5 5,10 10,10 l 5,0 c 5,0 10,-5 10,-10 l 0,-5 c 0,-5 -5,-10 -10,-10 l -5,0 z m 2.5,32.5 c -6.25,0 -12.5,2.5 -12.5,7.5 l 0,45 25,0 0,-45 c 0,-5 -6.25,-7.5 -12.5,-7.5 z"
       id="path4649"
       inkscape:connector-curvature="0" />
    <path
       style="fill:#ffffff;fill-opacity:1;stroke:none"
       d="m 299.95051,145 -15,0 c -15,0 -30,20 -30,30 l 0,15 c 0,10 10,30 25,30 l 20,0 c 10,0 15,-5 15,-10 l 0,-5 c 0,-5 -5,-10 -10,-10 l -20,0 c 0,0 -4,-2 -5,-5 -1,-5 -1,-10 0,-15 1,-3 3,-5 5,-5 l 20,0 c 5,0 10,-5 10,-10 l 0,-5 c 0,-5 -5,-10 -15,-10 z"
       id="path4653"
       inkscape:connector-curvature="0"
       sodipodi:nodetypes="ccccccccccccccccc" />
    <path
       style="fill:#ffffff;fill-opacity:1;stroke:none"
       d="m 324.95051,220 0,-55 c 0,-15 15,-20 25,-20 l 10,0 c 10,0 20,5 20,15 l 0,15 c 0,5 -15,5 -15,0 0,-15 -5,-15 -10,-15 -5,0 -10,0 -10,15 l 0,45 z"
       id="path4655"
       inkscape:connector-curvature="0"
       sodipodi:nodetypes="ccccccczccc" />
    <path
       style="fill:#ffffff;fill-opacity:1;stroke:none"
       d="m 419.95051,145 c -15,0 -25,15 -25,30 l 0,15 c 0,15 10,30 25,30 l 20,0 c 15,0 30,-15 30,-30 l 0,-15 c 0,-15 -15,-30 -30,-30 z m 7,23 10,0 c 5,0 10,5 10,10 l 0,10 c 0,5 -5,10 -10,10 l -10,0 c -5,0 -10,-5 -10,-10 l 0,-10 c 0,-5 5,-10 10,-10 z"
       id="path4657"
       inkscape:connector-curvature="0"
       sodipodi:nodetypes="ssssssssssssssssss" />
    <path
       style="fill:#ffffff;fill-opacity:1;stroke:none"
       d="m 204.95051,320 10,-25 c 20,5 40,5 55,5 10,0 15,-5 0,-10 -20,-5 -40,-15 -40,-25 0,-15 30,-25 45,-25 l 65,0 -5,15 -65,0 c -10,0 -20,10 5,15 25,5 45,10 45,25 0,10 0,20 -25,25 -40,5 -60,5 -90,0 z"
       id="path4662"
       inkscape:connector-curvature="0"
       sodipodi:nodetypes="ccccccccccccc" />
    <path
       style="fill:#ffffff;fill-opacity:1;stroke:none"
       d="m 355.20305,240 -5,15 20,0 c 2.96328,0 5.52871,0.39761 7.75,1.0625 l 21.875,-15.28125 C 395.91372,240.27792 392.53765,240 390.20305,240 l -35,0 z m 61.9375,4.03125 -31.96875,16 c 1.18808,1.06847 2.13251,2.23617 2.875,3.40625 l 42.09375,-15.53125 c -4.28691,-1.51272 -8.70142,-2.81511 -13,-3.875 z m 24.09375,8.53125 -51.125,16.15625 c 0.0656,0.45015 0.0937,0.88572 0.0937,1.28125 0,10 -15,20 -25,20 l -25,0 -10,30 c 35,0 55,0 75,-5 30,-10 55,-20 55,-40 0,-9.6029 -8.12359,-16.97911 -18.96875,-22.4375 z"
       id="path4664"
       inkscape:connector-curvature="0" />
  </g>
</svg>
