<?xml version="1.0" encoding="UTF-8" standalone="no"?>
<!-- Created with Inkscape (http://www.inkscape.org/) -->

<svg
   xmlns:dc="http://purl.org/dc/elements/1.1/"
   xmlns:cc="http://creativecommons.org/ns#"
   xmlns:rdf="http://www.w3.org/1999/02/22-rdf-syntax-ns#"
   xmlns:svg="http://www.w3.org/2000/svg"
   xmlns="http://www.w3.org/2000/svg"
   xmlns:sodipodi="http://sodipodi.sourceforge.net/DTD/sodipodi-0.dtd"
   xmlns:inkscape="http://www.inkscape.org/namespaces/inkscape"
   width="384"
   height="384"
   id="svg2"
   version="1.1"
   inkscape:version="0.48.5 r10040"
   sodipodi:docname="ringtone.svg"
   enable-background="new">
  <defs
     id="defs4">
    <inkscape:path-effect
       effect="spiro"
       id="path-effect3263"
       is_visible="true" />
    <inkscape:path-effect
       effect="spiro"
       id="path-effect3263-3"
       is_visible="true" />
    <inkscape:path-effect
       effect="spiro"
       id="path-effect3263-3-8"
       is_visible="true" />
    <inkscape:path-effect
       effect="spiro"
       id="path-effect3263-3-8-9"
       is_visible="true" />
    <filter
       inkscape:collect="always"
       id="filter4751">
      <feBlend
         inkscape:collect="always"
         mode="lighten"
         in2="BackgroundImage"
         id="feBlend4753" />
    </filter>
  </defs>
  <sodipodi:namedview
     id="base"
     pagecolor="#a0a0a0"
     bordercolor="#666666"
     borderopacity="1.0"
     inkscape:pageopacity="1"
     inkscape:pageshadow="2"
     inkscape:zoom="0.98994951"
     inkscape:cx="232.37909"
     inkscape:cy="159.90884"
     inkscape:document-units="px"
     inkscape:current-layer="g3004"
     showgrid="true"
     inkscape:window-width="1280"
     inkscape:window-height="718"
     inkscape:window-x="-3"
     inkscape:window-y="-3"
     inkscape:window-maximized="1">
    <inkscape:grid
       type="xygrid"
       id="grid-mdpi"
       empspacing="1"
       visible="true"
       enabled="true"
       snapvisiblegridlinesonly="true"
       spacingx="12px"
       spacingy="12px" />
    <inkscape:grid
       type="xygrid"
       id="grid-hdpi"
       empspacing="1"
       visible="false"
       enabled="true"
       snapvisiblegridlinesonly="true"
       spacingx="8px"
       spacingy="8px" />
    <inkscape:grid
       type="xygrid"
       id="grid-xhdpi"
       empspacing="1"
       visible="false"
       enabled="true"
       snapvisiblegridlinesonly="true"
       spacingx="6px"
       spacingy="6px" />
    <inkscape:grid
       type="xygrid"
       id="grid-xxhdpi"
       empspacing="1"
       visible="false"
       enabled="true"
       snapvisiblegridlinesonly="true"
       spacingx="4px"
       spacingy="4px" />
    <inkscape:grid
       type="xygrid"
       id="grid-xxxhdpi"
       empspacing="1"
       visible="false"
       enabled="true"
       snapvisiblegridlinesonly="true"
       spacingx="3px"
       spacingy="3px" />
  </sodipodi:namedview>
  <metadata
     id="metadata7">
    <rdf:RDF>
      <cc:Work
         rdf:about="">
        <dc:format>image/svg+xml</dc:format>
        <dc:type
           rdf:resource="http://purl.org/dc/dcmitype/StillImage" />
        <dc:title />
      </cc:Work>
    </rdf:RDF>
  </metadata>
  <g
     style="display:inline;filter:url(#filter4751)"
     inkscape:label="Status"
     id="g3004"
     inkscape:groupmode="layer">
    <path
       inkscape:connector-curvature="0"
       id="status"
       d="m 81.914299,41.971478 c -31.176915,18 -33.961524,61.176912 -1.17691,69.961522 0.2349,0.98347 -35.569224,34.39231 0.43078,96.74614 30.000001,51.96152 -17.569223,65.56922 12.43078,117.53074 24.000001,41.56922 97.769081,-1.02138 138.315351,-24.43078 40.54627,-23.4094 113.50539,-67.4029 90.31535,-107.56922 -30,-51.96152 -65.56922,-17.56922 -95.56922,-69.53074 -36,-62.353833 -89.19544,-45.497838 -83.56922,-48.746138 8.78461,-32.78461 -30,-51.961524 -61.176911,-33.961524 z M 206.73739,330.17141 c 0,0 18,31.17691 49.17691,13.17691 31.17691,-18 13.17691,-49.17691 13.17691,-49.17691 -19.28461,14.59807 -40.06921,26.59807 -62.35382,36 z"
       style="fill:#ffffff;fill-opacity:1;fill-rule:nonzero;stroke:none"
       inkscape:label="#path3006" />
  </g>
  <g
     inkscape:groupmode="layer"
     id="layer1"
     inkscape:label="Menu"
     style="display:inline;filter:url(#filter4751)">
    <path
       style="opacity:0.8;fill:#ffffff;fill-opacity:1;fill-rule:nonzero;stroke:none"
       d="m 81.914299,41.971478 c -31.176915,18 -33.961524,61.176912 -1.17691,69.961522 0.2349,0.98347 -35.569224,34.39231 0.43078,96.74614 30.000001,51.96152 -17.569223,65.56922 12.43078,117.53074 24.000001,41.56922 97.769081,-1.02138 138.315351,-24.43078 40.54627,-23.4094 113.50539,-67.4029 90.31535,-107.56922 -30,-51.96152 -65.56922,-17.56922 -95.56922,-69.53074 -36,-62.353833 -89.19544,-45.497838 -83.56922,-48.746138 8.78461,-32.78461 -30,-51.961524 -61.176911,-33.961524 z M 206.73739,330.17141 c 0,0 18,31.17691 49.17691,13.17691 31.17691,-18 13.17691,-49.17691 13.17691,-49.17691 -19.28461,14.59807 -40.06921,26.59807 -62.35382,36 z"
       id="menu"
       inkscape:connector-curvature="0"
       inkscape:label="#path1086" />
  </g>
</svg>
