<?xml version="1.0" encoding="UTF-8" standalone="no"?>
<!-- Created with Inkscape (http://www.inkscape.org/) -->

<svg
   xmlns:dc="http://purl.org/dc/elements/1.1/"
   xmlns:cc="http://creativecommons.org/ns#"
   xmlns:rdf="http://www.w3.org/1999/02/22-rdf-syntax-ns#"
   xmlns:svg="http://www.w3.org/2000/svg"
   xmlns="http://www.w3.org/2000/svg"
   xmlns:sodipodi="http://sodipodi.sourceforge.net/DTD/sodipodi-0.dtd"
   xmlns:inkscape="http://www.inkscape.org/namespaces/inkscape"
   width="120"
   height="120"
   id="svg2"
   version="1.1"
   inkscape:version="0.92.1 r"
   sodipodi:docname="scanning.svg"
   inkscape:export-filename="/mnt/devel/zxtune/trunk/apps/zxtune-android/res/drawable-ldpi-v11/ic_stat_notify_play.png"
   inkscape:export-xdpi="12.65625"
   inkscape:export-ydpi="12.65625">
  <defs
     id="defs4" />
  <sodipodi:namedview
     id="base"
     pagecolor="#000000"
     bordercolor="#666666"
     borderopacity="1.0"
     inkscape:pageopacity="0.25098039"
     inkscape:pageshadow="2"
     inkscape:zoom="4.3636364"
     inkscape:cx="59.999989"
     inkscape:cy="59.999979"
     inkscape:document-units="px"
     inkscape:current-layer="svg2"
     showgrid="true"
     inkscape:window-width="1280"
     inkscape:window-height="695"
     inkscape:window-x="0"
     inkscape:window-y="0"
     inkscape:window-maximized="1"
     showguides="true"
     inkscape:guide-bbox="true"
     borderlayer="true"
     inkscape:pagecheckerboard="true">
    <inkscape:grid
       type="xygrid"
       id="grid2985"
       empspacing="1"
       visible="true"
       enabled="true"
       snapvisiblegridlinesonly="true" />
  </sodipodi:namedview>
  <metadata
     id="metadata7">
    <rdf:RDF>
      <cc:Work
         rdf:about="">
        <dc:format>image/svg+xml</dc:format>
        <dc:type
           rdf:resource="http://purl.org/dc/dcmitype/StillImage" />
        <dc:title></dc:title>
      </cc:Work>
    </rdf:RDF>
  </metadata>
  <g>
    <path
       d="m 60,5 v 5 C 40,10 23,21 15,38 l 9,4.5 C 31,29 44,20 60,20 v 5 L 75,15 Z m 22,10 -5,9 c 14,7 23,20 23,36 h -5 l 10,15 10,-15 h -5 C 110,40 99,23 82,15 Z M 65,30 v 45 c 0,0 -4,-4 -12,-4 -8,0 -16,5 -16,11 0,5 8,11 16,11 8,0 19,-5 19,-11 V 45 c 0,0 2,-1 4,4 3,5 0,13 0,13 0,0 6,-5 6,-11 0,-5 0,-8 -8,-13 -7,-5 -9,-8 -9,-8 z M 15,45 5,60 h 5 c 0,20 11,37 28,45 l 5,-9 C 29,89 20,76 20,60 h 5 z m 81,33 c -7,13 -20,22 -36,22 v -5 l -15,10 15,10 v -5 c 20,0 37,-11 45,-28 z"
       inkscape:connector-curvature="0" />
  </g>
</svg>
