<?xml version="1.0" encoding="UTF-8" standalone="no"?>
<!-- Created with Inkscape (http://www.inkscape.org/) -->

<svg
   xmlns:dc="http://purl.org/dc/elements/1.1/"
   xmlns:cc="http://creativecommons.org/ns#"
   xmlns:rdf="http://www.w3.org/1999/02/22-rdf-syntax-ns#"
   xmlns:svg="http://www.w3.org/2000/svg"
   xmlns="http://www.w3.org/2000/svg"
   xmlns:sodipodi="http://sodipodi.sourceforge.net/DTD/sodipodi-0.dtd"
   xmlns:inkscape="http://www.inkscape.org/namespaces/inkscape"
   width="128"
   height="128"
   id="svg2"
   version="1.1"
   inkscape:version="0.48.4 r9939"
   sodipodi:docname="icon.svg"
   inkscape:export-filename="/mnt/devel/zxtune/trunk/apps/zxtune-qt/res/theme_restorer/zxtune_32.png"
   inkscape:export-xdpi="22.5"
   inkscape:export-ydpi="22.5">
  <defs
     id="defs4" />
  <sodipodi:namedview
     id="base"
     pagecolor="#ffffff"
     bordercolor="#666666"
     borderopacity="1.0"
     inkscape:pageopacity="0.0"
     inkscape:pageshadow="2"
     inkscape:zoom="5.6568542"
     inkscape:cx="63.418124"
     inkscape:cy="64.849812"
     inkscape:document-units="px"
     inkscape:current-layer="layer2"
     showgrid="true"
     inkscape:snap-global="true"
     fit-margin-top="0"
     fit-margin-left="0"
     fit-margin-right="0"
     fit-margin-bottom="0"
     inkscape:window-width="1280"
     inkscape:window-height="726"
     inkscape:window-x="-4"
     inkscape:window-y="-3"
     inkscape:window-maximized="1">
    <inkscape:grid
       type="xygrid"
       id="grid3071"
       empspacing="1"
       visible="true"
       enabled="true"
       snapvisiblegridlinesonly="true"
       originx="0px"
       originy="0px" />
  </sodipodi:namedview>
  <metadata
     id="metadata7">
    <rdf:RDF>
      <cc:Work
         rdf:about="">
        <dc:format>image/svg+xml</dc:format>
        <dc:type
           rdf:resource="http://purl.org/dc/dcmitype/StillImage" />
        <dc:title></dc:title>
      </cc:Work>
    </rdf:RDF>
  </metadata>
  <g
     inkscape:groupmode="layer"
     id="layer1"
     inkscape:label="Слой#1"
     style="display:inline">
    <path
       style="fill:#00ffff;stroke-width:3;stroke-linecap:round;stroke-linejoin:round;stroke-miterlimit:4;stroke-dasharray:none;display:inline"
       d="m 90,102 0,-9 8,-9 12,0 -6,-6 8,-8 6,6 0,17 -19,0 3,7 16,0 0,8 -22,0 z"
       id="path3931"
       inkscape:connector-curvature="0"
       sodipodi:nodetypes="cccccccccccccc" />
    <path
       style="fill:#00ffff;stroke-width:3;stroke-linecap:round;stroke-linejoin:round;stroke-miterlimit:4;stroke-dasharray:none;display:inline"
       d="m 80,103 8,-8 0,13 -8,0 z"
       id="path3933"
       inkscape:connector-curvature="0"
       sodipodi:nodetypes="ccccc" />
    <path
       style="fill:#00ff00;stroke-width:3;stroke-linecap:round;stroke-linejoin:round;stroke-miterlimit:4;stroke-dasharray:none;display:inline"
       d="m 60,78 8,-8 14,0 6,6 0,19 -8,8 0,-20 -3,-4 -9,0 0,29 -8,0 z"
       id="path3935"
       inkscape:connector-curvature="0"
       sodipodi:nodetypes="cccccccccccc" />
    <path
       style="fill:#00ff00;stroke-width:3;stroke-linecap:round;stroke-linejoin:round;stroke-miterlimit:4;stroke-dasharray:none;display:inline"
       d="m 90,76 6,-6 16,0 -7,7 -7,7 -8,9 z"
       id="path3937"
       inkscape:connector-curvature="0"
       sodipodi:nodetypes="ccccccc" />
    <path
       style="fill:#00ff00;stroke-width:3;stroke-linecap:round;stroke-linejoin:round;stroke-miterlimit:4;stroke-dasharray:none;display:inline"
       d="m 85,53 7,-7 1,1 0,21 -8,0 z"
       id="path3939"
       inkscape:connector-curvature="0"
       sodipodi:nodetypes="cccccc" />
    <path
       style="fill:#00ff00;stroke-width:3;stroke-linecap:round;stroke-linejoin:round;stroke-miterlimit:4;stroke-dasharray:none;display:inline"
       d="m 32,106 8,-8 3,2 7,0 0,-12 8,-8 0,28 -24,0 z"
       id="path3941"
       inkscape:connector-curvature="0"
       sodipodi:nodetypes="ccccccccc" />
    <path
       style="fill:#ffff00;stroke-width:3;stroke-linecap:round;stroke-linejoin:round;stroke-miterlimit:4;stroke-dasharray:none;display:inline"
       d="M 50.0023,78.4375 50,70 l 8,0 0,10 -8,8 z"
       id="path3943"
       inkscape:connector-curvature="0"
       sodipodi:nodetypes="cccccc" />
    <path
       style="fill:#ffff00;stroke-width:3;stroke-linecap:round;stroke-linejoin:round;stroke-miterlimit:4;stroke-dasharray:none;display:inline"
       d="m 60,70 8,0 -8,8 z"
       id="path3945"
       inkscape:connector-curvature="0"
       sodipodi:nodetypes="cccc" />
    <path
       style="fill:#ffff00;stroke-width:3;stroke-linecap:round;stroke-linejoin:round;stroke-miterlimit:4;stroke-dasharray:none;display:inline"
       d="m 60,47 3,-3 -3,-3 0,-7 8,-8 0,10 4,4 9,0 4,-4 0,-16 8,0 0,21 -3,3 2,2 -7,7 -4,-4 -9,0 -4,4 0,15 -8,0 z"
       id="path3947"
       inkscape:connector-curvature="0"
       sodipodi:nodetypes="ccccccccccccccccccccc" />
    <path
       style="fill:#ffff00;stroke-width:3;stroke-linecap:round;stroke-linejoin:round;stroke-miterlimit:4;stroke-dasharray:none;display:inline"
       d="m 30,70 8,0 0,25 2,3 -8,8 -2,-6 z"
       id="path3951"
       inkscape:connector-curvature="0"
       sodipodi:nodetypes="ccccccc" />
    <path
       style="fill:#ffff00;stroke-width:3;stroke-linecap:round;stroke-linejoin:round;stroke-miterlimit:4;stroke-dasharray:none;display:inline"
       d="m 10,103 0,-19 14,-14 4,0 0,8 -10,0 0,17 5,5 5,0 0,8 -13,0 z"
       id="path3953"
       inkscape:connector-curvature="0"
       sodipodi:nodetypes="cccccccccccc" />
    <path
       style="fill:#ff0000;stroke-width:3;stroke-linecap:round;stroke-linejoin:round;stroke-miterlimit:4;stroke-dasharray:none;display:inline"
       d="m 10,55 8,0 0,15 6,0 -14,14 z"
       id="path3957"
       inkscape:connector-curvature="0"
       sodipodi:nodetypes="cccccc" />
    <path
       transform="translate(1.5,30.5)"
       style="fill:#ff0000;stroke-width:3;stroke-linecap:round;stroke-linejoin:round;stroke-miterlimit:4;stroke-dasharray:none;display:inline"
       d="m 28.5,29.5 20,-32 -20,0 0,-8 28,0 0,8 -14,22 -14,14 z"
       id="path3959"
       inkscape:connector-curvature="0"
       sodipodi:nodetypes="ccccccccc" />
    <path
       style="fill:#ff0000;stroke-width:3;stroke-linecap:round;stroke-linejoin:round;stroke-miterlimit:4;stroke-dasharray:none;display:inline"
       d="m 60,20 8,0 0,6 -8,8 z"
       id="path3961"
       inkscape:connector-curvature="0"
       sodipodi:nodetypes="ccccc" />
    <path
       transform="translate(1.5,30.5)"
       style="fill:#ffff00;stroke-width:3;stroke-linecap:round;stroke-linejoin:round;stroke-miterlimit:4;stroke-dasharray:none;display:inline"
       d="m 28.5,33.5 14,-14 L 36.522603,29.579674 56.5,29.5 l 0,8 -28,0 z"
       id="path3949"
       inkscape:connector-curvature="0"
       sodipodi:nodetypes="ccccccc" />
  </g>
  <g
     inkscape:groupmode="layer"
     id="layer2"
     inkscape:label="Слой"
     transform="translate(1.5,30.5)"
     style="display:inline">
    <path
       style="fill:none;stroke:#000000;stroke-width:4;stroke-linecap:round;stroke-linejoin:round;stroke-miterlimit:4;stroke-opacity:1;stroke-dasharray:none"
       d="m 27.5,-11.5 0,10 20,0 -20,30 0,10 30,0 0,-10 -20,0 20,-30 0,-10 z"
       id="path3082"
       inkscape:connector-curvature="0"
       sodipodi:nodetypes="ccccccccccc" />
    <path
       style="fill:none;stroke:#000000;stroke-width:4;stroke-linecap:round;stroke-linejoin:round;stroke-miterlimit:4;stroke-opacity:1;stroke-dasharray:none;marker-end:none"
       d="m 92.5,38.5 0,-20 c 0,-5 -5,-5 -5,-5 0,0 5,0 5,-5 l 0,-20 -10,0 0,15 c 0,5 -5,5 -5,5 l -5,0 c -5,0 -5,-5 -5,-5 l 0,-15 -10,0 0,20 c 0,5 5,5 5,5 0,0 -5,0 -5,5 l 0,20 10,0 0,-15 c 0,0 0,-5 5,-5 l 5,0 c 5,0 5,5 5,5 l 0,15 z"
       id="path3084"
       inkscape:connector-curvature="0"
       sodipodi:nodetypes="ccccccccccccccccccccccc" />
    <path
       style="fill:none;stroke:#000000;stroke-width:4;stroke-linecap:round;stroke-linejoin:round;stroke-miterlimit:4;stroke-opacity:1;stroke-dasharray:none"
       d="m 7.5,23.5 10,0 0,15 10,0 0,10 -10,0 0,15 c 0,0 0,5 5,5 l 5,0 0,10 -10,0 c -5,0 -10,-5 -10,-10 z"
       id="path3086"
       inkscape:connector-curvature="0"
       sodipodi:nodetypes="ccccccccccccc" />
    <path
       style="fill:none;stroke:#000000;stroke-width:4;stroke-linecap:round;stroke-linejoin:round;stroke-miterlimit:4;stroke-opacity:1;stroke-dasharray:none"
       d="m 27.5,38.5 0,30 c 0,5 5,10 10,10 l 20,0 0,-40 -10,0 0,30 -5,0 c -5,0 -5,-5 -5,-5 l 0,-25 z"
       id="path3088"
       inkscape:connector-curvature="0"
       sodipodi:nodetypes="ccccccccccc" />
    <path
       style="fill:none;stroke:#000000;stroke-width:4;stroke-linecap:round;stroke-linejoin:round;stroke-miterlimit:4;stroke-opacity:1;stroke-dasharray:none"
       d="m 57.5,78.5 0,-40 20,0 c 5,0 10,5 10,10 l 0,30 -10,0 c 0,0 0,-20 0,-25 0,-5 -5,-5 -5,-5 l -5,0 0,30 z"
       id="path3090"
       inkscape:connector-curvature="0"
       sodipodi:nodetypes="cccccczcccc" />
    <path
       style="fill:none;stroke:#000000;stroke-width:4;stroke-linecap:round;stroke-linejoin:round;stroke-miterlimit:4;stroke-opacity:1;stroke-dasharray:none"
       d="m 87.5,48.5 c 0,-5 5,-10 10,-10 l 10,0 c 5,0 10,5 10,10 0,5 0,10 0,15 l -20,0 c 0,0 0,5 5,5 l 15,0 0,10 -20,0 c -5,0 -10,-5 -10,-10 z"
       id="path3092"
       inkscape:connector-curvature="0"
       sodipodi:nodetypes="cccccccccccc" />
    <path
       style="fill:none;stroke:#000000;stroke-width:3;stroke-linecap:round;stroke-linejoin:round;stroke-miterlimit:4;stroke-opacity:1;stroke-dasharray:none"
       d="m 97.5,53.5 c 0,-5 5,-5 5,-5 0,0 5,0 5,5 z"
       id="path3094"
       inkscape:connector-curvature="0"
       sodipodi:nodetypes="cccc" />
  </g>
</svg>
