<?xml version="1.0" encoding="UTF-8" standalone="no"?>
<!-- Created with Inkscape (http://www.inkscape.org/) -->

<svg
   xmlns:dc="http://purl.org/dc/elements/1.1/"
   xmlns:cc="http://creativecommons.org/ns#"
   xmlns:rdf="http://www.w3.org/1999/02/22-rdf-syntax-ns#"
   xmlns:svg="http://www.w3.org/2000/svg"
   xmlns="http://www.w3.org/2000/svg"
   xmlns:sodipodi="http://sodipodi.sourceforge.net/DTD/sodipodi-0.dtd"
   xmlns:inkscape="http://www.inkscape.org/namespaces/inkscape"
   width="128"
   height="128"
   id="svg2"
   version="1.1"
   inkscape:version="0.48.4 r9939"
   sodipodi:docname="icon.svg"
   inkscape:export-filename="/mnt/devel/zxtune/trunk/apps/zxtune-android/res/drawable-ldpi/ic_launcher.png"
   inkscape:export-xdpi="25.309999"
   inkscape:export-ydpi="25.309999">
  <defs
     id="defs4">
    <filter
       inkscape:collect="always"
       id="filter3909"
       color-interpolation-filters="sRGB">
      <feGaussianBlur
         inkscape:collect="always"
         stdDeviation="1.2"
         id="feGaussianBlur3911" />
    </filter>
  </defs>
  <sodipodi:namedview
     id="base"
     pagecolor="#ffffff"
     bordercolor="#666666"
     borderopacity="1.0"
     inkscape:pageopacity="0.0"
     inkscape:pageshadow="2"
     inkscape:zoom="2.8284271"
     inkscape:cx="28.055226"
     inkscape:cy="56.100165"
     inkscape:document-units="px"
     inkscape:current-layer="layer2"
     showgrid="true"
     inkscape:snap-global="true"
     fit-margin-top="0"
     fit-margin-left="0"
     fit-margin-right="0"
     fit-margin-bottom="0"
     inkscape:window-width="1280"
     inkscape:window-height="726"
     inkscape:window-x="-4"
     inkscape:window-y="-3"
     inkscape:window-maximized="1">
    <inkscape:grid
       type="xygrid"
       id="grid3071"
       empspacing="1"
       visible="true"
       enabled="true"
       snapvisiblegridlinesonly="true"
       originx="0px"
       originy="0px" />
  </sodipodi:namedview>
  <metadata
     id="metadata7">
    <rdf:RDF>
      <cc:Work
         rdf:about="">
        <dc:format>image/svg+xml</dc:format>
        <dc:type
           rdf:resource="http://purl.org/dc/dcmitype/StillImage" />
        <dc:title></dc:title>
      </cc:Work>
    </rdf:RDF>
  </metadata>
  <g
     inkscape:groupmode="layer"
     id="layer1"
     inkscape:label="Слой#1"
     style="display:inline">
    <path
       style="fill:#00ffff;stroke-width:3;stroke-linecap:round;stroke-linejoin:round;stroke-miterlimit:4;stroke-dasharray:none;display:inline"
       d="m 90,102 0,-9 8,-9 12,0 -6,-6 8,-8 6,6 0,17 -19,0 3,7 16,0 0,8 -22,0 z"
       id="path3931"
       inkscape:connector-curvature="0"
       sodipodi:nodetypes="cccccccccccccc" />
    <path
       style="fill:#00ffff;stroke-width:3;stroke-linecap:round;stroke-linejoin:round;stroke-miterlimit:4;stroke-dasharray:none;display:inline"
       d="m 80,103 8,-8 0,13 -8,0 z"
       id="path3933"
       inkscape:connector-curvature="0"
       sodipodi:nodetypes="ccccc" />
    <path
       style="fill:#00ff00;stroke-width:3;stroke-linecap:round;stroke-linejoin:round;stroke-miterlimit:4;stroke-dasharray:none;display:inline"
       d="m 60,78 8,-8 14,0 6,6 0,19 -8,8 0,-20 -3,-4 -9,0 0,29 -8,0 z"
       id="path3935"
       inkscape:connector-curvature="0"
       sodipodi:nodetypes="cccccccccccc" />
    <path
       style="fill:#00ff00;stroke-width:3;stroke-linecap:round;stroke-linejoin:round;stroke-miterlimit:4;stroke-dasharray:none;display:inline"
       d="m 90,76 6,-6 16,0 -7,7 -7,7 -8,9 z"
       id="path3937"
       inkscape:connector-curvature="0"
       sodipodi:nodetypes="ccccccc" />
    <path
       style="fill:#00ff00;stroke-width:3;stroke-linecap:round;stroke-linejoin:round;stroke-miterlimit:4;stroke-dasharray:none;display:inline"
       d="m 85,53 7,-7 1,1 0,21 -8,0 z"
       id="path3939"
       inkscape:connector-curvature="0"
       sodipodi:nodetypes="cccccc" />
    <path
       style="fill:#00ff00;stroke-width:3;stroke-linecap:round;stroke-linejoin:round;stroke-miterlimit:4;stroke-dasharray:none;display:inline"
       d="m 32,106 8,-8 3,2 7,0 0,-12 8,-8 0,28 -24,0 z"
       id="path3941"
       inkscape:connector-curvature="0"
       sodipodi:nodetypes="ccccccccc" />
    <path
       style="fill:#ffff00;stroke-width:3;stroke-linecap:round;stroke-linejoin:round;stroke-miterlimit:4;stroke-dasharray:none;display:inline"
       d="M 50.0023,78.4375 50,70 l 8,0 0,10 -8,8 z"
       id="path3943"
       inkscape:connector-curvature="0"
       sodipodi:nodetypes="cccccc" />
    <path
       style="fill:#ffff00;stroke-width:3;stroke-linecap:round;stroke-linejoin:round;stroke-miterlimit:4;stroke-dasharray:none;display:inline"
       d="m 60,70 8,0 -8,8 z"
       id="path3945"
       inkscape:connector-curvature="0"
       sodipodi:nodetypes="cccc" />
    <path
       style="fill:#ffff00;stroke-width:3;stroke-linecap:round;stroke-linejoin:round;stroke-miterlimit:4;stroke-dasharray:none;display:inline"
       d="m 60,47 3,-3 -3,-3 0,-7 8,-8 0,10 4,4 9,0 4,-4 0,-16 8,0 0,21 -3,3 2,2 -7,7 -4,-4 -9,0 -4,4 0,15 -8,0 z"
       id="path3947"
       inkscape:connector-curvature="0"
       sodipodi:nodetypes="ccccccccccccccccccccc" />
    <path
       style="fill:#ffff00;stroke-width:3;stroke-linecap:round;stroke-linejoin:round;stroke-miterlimit:4;stroke-dasharray:none;display:inline"
       d="m 30,70 8,0 0,25 2,3 -8,8 -2,-6 z"
       id="path3951"
       inkscape:connector-curvature="0"
       sodipodi:nodetypes="ccccccc" />
    <path
       style="fill:#ffff00;stroke-width:3;stroke-linecap:round;stroke-linejoin:round;stroke-miterlimit:4;stroke-dasharray:none;display:inline"
       d="m 10,103 0,-19 14,-14 4,0 0,8 -10,0 0,17 5,5 5,0 0,8 -13,0 z"
       id="path3953"
       inkscape:connector-curvature="0"
       sodipodi:nodetypes="cccccccccccc" />
    <path
       style="fill:#ff0000;stroke-width:3;stroke-linecap:round;stroke-linejoin:round;stroke-miterlimit:4;stroke-dasharray:none;display:inline"
       d="m 10,55 8,0 0,15 6,0 -14,14 z"
       id="path3957"
       inkscape:connector-curvature="0"
       sodipodi:nodetypes="cccccc" />
    <path
       transform="translate(1.5,30.5)"
       style="fill:#ff0000;stroke-width:3;stroke-linecap:round;stroke-linejoin:round;stroke-miterlimit:4;stroke-dasharray:none;display:inline"
       d="m 28.5,29.5 20,-32 -20,0 0,-8 28,0 0,8 -14,22 -14,14 z"
       id="path3959"
       inkscape:connector-curvature="0"
       sodipodi:nodetypes="ccccccccc" />
    <path
       style="fill:#ff0000;stroke-width:3;stroke-linecap:round;stroke-linejoin:round;stroke-miterlimit:4;stroke-dasharray:none;display:inline"
       d="m 60,20 8,0 0,6 -8,8 z"
       id="path3961"
       inkscape:connector-curvature="0"
       sodipodi:nodetypes="ccccc" />
    <path
       transform="translate(1.5,30.5)"
       style="fill:#ffff00;stroke-width:3;stroke-linecap:round;stroke-linejoin:round;stroke-miterlimit:4;stroke-dasharray:none;display:inline"
       d="m 28.5,33.5 14,-14 L 36.522603,29.579674 56.5,29.5 l 0,8 -28,0 z"
       id="path3949"
       inkscape:connector-curvature="0"
       sodipodi:nodetypes="ccccccc" />
  </g>
  <g
     inkscape:groupmode="layer"
     id="layer2"
     inkscape:label="Слой"
     transform="translate(1.5,30.5)"
     style="display:inline">
    <path
       style="fill:none;stroke:#000000;stroke-width:3;stroke-linecap:round;stroke-linejoin:round;stroke-miterlimit:4;stroke-opacity:1;stroke-dasharray:none"
       d="m 27.5,-11.5 0,10 20,0 -20,30 0,10 30,0 0,-10 -20,0 20,-30 0,-10 z"
       id="path3082"
       inkscape:connector-curvature="0"
       sodipodi:nodetypes="ccccccccccc" />
    <path
       style="fill:none;stroke:#000000;stroke-width:3;stroke-linecap:round;stroke-linejoin:round;stroke-miterlimit:4;stroke-opacity:1;stroke-dasharray:none;marker-end:none"
       d="m 92.5,38.5 0,-20 c 0,-5 -5,-5 -5,-5 0,0 5,0 5,-5 l 0,-20 -10,0 0,15 c 0,5 -5,5 -5,5 l -5,0 c -5,0 -5,-5 -5,-5 l 0,-15 -10,0 0,20 c 0,5 5,5 5,5 0,0 -5,0 -5,5 l 0,20 10,0 0,-15 c 0,0 0,-5 5,-5 l 5,0 c 5,0 5,5 5,5 l 0,15 z"
       id="path3084"
       inkscape:connector-curvature="0"
       sodipodi:nodetypes="ccccccccccccccccccccccc" />
    <path
       style="fill:none;stroke:#000000;stroke-width:3;stroke-linecap:round;stroke-linejoin:round;stroke-miterlimit:4;stroke-opacity:1;stroke-dasharray:none"
       d="m 7.5,23.5 10,0 0,15 10,0 0,10 -10,0 0,15 c 0,0 0,5 5,5 l 5,0 0,10 -10,0 c -5,0 -10,-5 -10,-10 z"
       id="path3086"
       inkscape:connector-curvature="0"
       sodipodi:nodetypes="ccccccccccccc" />
    <path
       style="fill:none;stroke:#000000;stroke-width:3;stroke-linecap:round;stroke-linejoin:round;stroke-miterlimit:4;stroke-opacity:1;stroke-dasharray:none"
       d="m 27.5,38.5 0,30 c 0,5 5,10 10,10 l 20,0 0,-40 -10,0 0,30 -5,0 c -5,0 -5,-5 -5,-5 l 0,-25 z"
       id="path3088"
       inkscape:connector-curvature="0"
       sodipodi:nodetypes="ccccccccccc" />
    <path
       style="fill:none;stroke:#000000;stroke-width:3;stroke-linecap:round;stroke-linejoin:round;stroke-miterlimit:4;stroke-opacity:1;stroke-dasharray:none"
       d="m 57.5,78.5 0,-40 20,0 c 5,0 10,5 10,10 l 0,30 -10,0 c 0,0 0,-20 0,-25 0,-5 -5,-5 -5,-5 l -5,0 0,30 z"
       id="path3090"
       inkscape:connector-curvature="0"
       sodipodi:nodetypes="cccccczcccc" />
    <path
       style="fill:none;stroke:#000000;stroke-width:3;stroke-linecap:round;stroke-linejoin:round;stroke-miterlimit:4;stroke-opacity:1;stroke-dasharray:none"
       d="m 87.5,48.5 c 0,-5 5,-10 10,-10 l 10,0 c 5,0 10,5 10,10 0,5 0,10 0,15 l -20,0 c 0,0 0,5 5,5 l 15,0 0,10 -20,0 c -5,0 -10,-5 -10,-10 z"
       id="path3092"
       inkscape:connector-curvature="0"
       sodipodi:nodetypes="cccccccccccc" />
    <path
       style="fill:none;stroke:#000000;stroke-width:3;stroke-linecap:round;stroke-linejoin:round;stroke-miterlimit:4;stroke-opacity:1;stroke-dasharray:none"
       d="m 97.5,53.5 c 0,-5 5,-5 5,-5 0,0 5,0 5,5 z"
       id="path3094"
       inkscape:connector-curvature="0"
       sodipodi:nodetypes="cccc" />
    <path
       style="fill:#00ffff;stroke-width:3;stroke-linecap:round;stroke-linejoin:round;stroke-miterlimit:4;stroke-dasharray:none"
       d="m 95.7169,76.673032 c -3.17195,-0.852983 -6.100483,-4.122388 -6.563719,-7.327705 -0.09085,-0.628645 -0.166785,-2.496023 -0.16874,-4.149734 l -0.0036,-3.006745 3.776959,-3.773891 c 3.47073,-3.467914 3.80769,-3.757437 4.15613,-3.570959 0.26814,0.143503 1.97769,0.187873 5.83765,0.15151 l 5.45846,-0.05142 0.36741,-0.441942 c 0.41189,-0.495452 0.50841,-1.914173 0.20462,-3.007629 -0.49631,-1.786465 -2.03741,-3.394624 -3.87228,-4.040795 l -0.88325,-0.311049 3.21634,-3.211539 3.21633,-3.21154 0.88669,0.50725 c 2.21179,1.265314 4.17015,4.039054 4.50949,6.387071 0.0909,0.628644 0.16678,4.104206 0.16874,7.72347 l 0.004,6.580482 -9.53181,0.04864 -9.53181,0.04864 -0.47451,0.441942 c -0.44615,0.415524 -0.4698,0.515908 -0.39559,1.679378 0.14691,2.303335 1.43053,4.255864 3.45252,5.251682 l 1.18164,0.581949 7.64978,0.0529 7.64978,0.0529 0,3.438439 0,3.43844 -9.67853,-0.01163 c -7.87362,-0.0095 -9.85639,-0.05946 -10.6323,-0.268119 l 0,-2e-6 z"
       id="path3929"
       inkscape:connector-curvature="0" />
    <path
       style="fill:#ff0000;stroke-width:3;stroke-linecap:round;stroke-linejoin:round;stroke-miterlimit:4;stroke-dasharray:none"
       d="m 9.022603,38.515179 0,-13.435505 3.5,0 3.5,0 0,7.002447 c 0,8.255007 -0.16629,7.793984 2.8847,7.997553 l 1.873439,0.125 -5.87907,5.873005 -5.879069,5.873005 0,-13.435505 z"
       id="path3955"
       inkscape:connector-curvature="0" />
  </g>
</svg>
